<?xml version="1.0" encoding="UTF-8"?>
<svg xmlns="http://www.w3.org/2000/svg" xmlns:xlink="http://www.w3.org/1999/xlink" width="32px" height="32px" viewBox="0 0 32 32" version="1.1">
<g id="surface1">
<path style=" stroke:none;fill-rule:nonzero;fill:rgb(5.490196%,57.254905%,89.411765%);fill-opacity:1;" d="M 23.550781 2.660156 C 23.582031 2.660156 23.617188 2.660156 23.648438 2.660156 C 23.738281 2.660156 23.828125 2.660156 23.917969 2.660156 C 24.011719 2.660156 24.109375 2.660156 24.207031 2.660156 C 24.375 2.660156 24.539062 2.660156 24.707031 2.660156 C 24.949219 2.660156 25.191406 2.660156 25.429688 2.660156 C 25.824219 2.660156 26.214844 2.660156 26.605469 2.660156 C 26.988281 2.660156 27.367188 2.660156 27.746094 2.660156 C 27.769531 2.660156 27.792969 2.660156 27.820312 2.660156 C 27.9375 2.660156 28.054688 2.660156 28.171875 2.660156 C 29.148438 2.660156 30.125 2.660156 31.097656 2.660156 C 31.097656 3.25 31.097656 3.835938 31.097656 4.441406 C 30.742188 4.441406 30.742188 4.441406 30.378906 4.445312 C 29.621094 4.445312 28.859375 4.445312 28.101562 4.449219 C 27.980469 4.449219 27.863281 4.449219 27.746094 4.449219 C 27.710938 4.449219 27.710938 4.449219 27.675781 4.449219 C 27.292969 4.449219 26.914062 4.449219 26.53125 4.449219 C 26.140625 4.449219 25.75 4.449219 25.359375 4.453125 C 25.121094 4.453125 24.878906 4.453125 24.636719 4.453125 C 24.472656 4.453125 24.308594 4.453125 24.140625 4.453125 C 24.046875 4.453125 23.953125 4.453125 23.855469 4.453125 C 22.953125 4.453125 22.238281 4.585938 21.574219 5.246094 C 21.144531 5.699219 20.90625 6.324219 20.921875 6.945312 C 20.941406 7.375 21.035156 7.773438 21.25 8.148438 C 21.261719 8.167969 21.273438 8.191406 21.289062 8.210938 C 21.628906 8.769531 22.171875 9.164062 22.804688 9.320312 C 22.839844 9.328125 22.871094 9.335938 22.90625 9.34375 C 22.921875 9.347656 22.933594 9.351562 22.949219 9.351562 C 23.183594 9.398438 23.425781 9.402344 23.664062 9.402344 C 23.703125 9.40625 23.703125 9.40625 23.742188 9.40625 C 23.820312 9.40625 23.902344 9.40625 23.980469 9.410156 C 24.035156 9.410156 24.09375 9.410156 24.148438 9.410156 C 24.28125 9.414062 24.414062 9.414062 24.546875 9.417969 C 24.546875 9.402344 24.546875 9.390625 24.546875 9.375 C 25.042969 9.398438 25.042969 9.398438 25.550781 9.417969 C 25.550781 9.429688 25.550781 9.445312 25.550781 9.457031 C 25.566406 9.460938 25.582031 9.460938 25.597656 9.464844 C 26.542969 9.574219 27.371094 10.066406 28.046875 10.707031 C 28.066406 10.722656 28.082031 10.738281 28.097656 10.753906 C 28.886719 11.511719 29.316406 12.671875 29.339844 13.75 C 29.34375 14.976562 28.855469 16.09375 28 16.960938 C 27.699219 17.257812 27.351562 17.488281 26.984375 17.6875 C 26.96875 17.695312 26.957031 17.703125 26.941406 17.710938 C 26.640625 17.875 26.320312 17.992188 25.988281 18.074219 C 25.972656 18.078125 25.957031 18.082031 25.941406 18.085938 C 25.886719 18.097656 25.832031 18.109375 25.777344 18.117188 C 25.761719 18.121094 25.75 18.125 25.738281 18.125 C 25.421875 18.1875 25.113281 18.1875 24.792969 18.1875 C 24.734375 18.1875 24.675781 18.1875 24.617188 18.1875 C 24.496094 18.1875 24.371094 18.1875 24.246094 18.1875 C 24.058594 18.1875 23.875 18.1875 23.691406 18.1875 C 23.378906 18.1875 23.066406 18.1875 22.757812 18.1875 C 22.449219 18.1875 22.140625 18.1875 21.832031 18.1875 C 21.8125 18.1875 21.792969 18.1875 21.773438 18.1875 C 21.675781 18.1875 21.578125 18.1875 21.480469 18.1875 C 20.792969 18.1875 20.101562 18.1875 19.414062 18.183594 C 18.746094 18.183594 18.074219 18.183594 17.40625 18.183594 C 17.386719 18.183594 17.363281 18.183594 17.34375 18.183594 C 17.136719 18.183594 16.929688 18.183594 16.71875 18.183594 C 16.296875 18.183594 15.875 18.183594 15.453125 18.183594 C 15.433594 18.183594 15.414062 18.183594 15.394531 18.183594 C 14.390625 18.183594 13.386719 18.183594 12.382812 18.179688 C 12.367188 18.179688 12.351562 18.179688 12.339844 18.179688 C 12.0625 18.179688 11.785156 18.179688 11.507812 18.179688 C 11.507812 17.597656 11.507812 17.019531 11.507812 16.417969 C 11.675781 16.417969 11.847656 16.417969 12.023438 16.417969 C 12.140625 16.417969 12.253906 16.417969 12.371094 16.417969 C 12.394531 16.417969 12.394531 16.417969 12.417969 16.417969 C 13.414062 16.417969 14.410156 16.417969 15.40625 16.417969 C 15.425781 16.417969 15.445312 16.417969 15.464844 16.417969 C 15.886719 16.414062 16.304688 16.414062 16.722656 16.414062 C 16.925781 16.414062 17.132812 16.414062 17.335938 16.414062 C 17.359375 16.414062 17.378906 16.414062 17.398438 16.414062 C 18.0625 16.414062 18.722656 16.414062 19.386719 16.414062 C 20.066406 16.414062 20.746094 16.410156 21.425781 16.410156 C 21.523438 16.410156 21.617188 16.410156 21.714844 16.410156 C 21.734375 16.410156 21.75 16.410156 21.769531 16.410156 C 22.074219 16.410156 22.378906 16.410156 22.683594 16.410156 C 22.988281 16.410156 23.296875 16.410156 23.601562 16.410156 C 23.785156 16.410156 23.964844 16.40625 24.148438 16.40625 C 24.269531 16.410156 24.390625 16.40625 24.511719 16.40625 C 24.582031 16.40625 24.648438 16.40625 24.71875 16.40625 C 25.070312 16.40625 25.417969 16.402344 25.75 16.285156 C 25.765625 16.28125 25.78125 16.277344 25.796875 16.269531 C 26.089844 16.164062 26.375 16.007812 26.617188 15.804688 C 26.636719 15.789062 26.65625 15.773438 26.675781 15.753906 C 27.164062 15.335938 27.484375 14.703125 27.535156 14.066406 C 27.566406 13.351562 27.386719 12.671875 26.921875 12.121094 C 26.90625 12.101562 26.890625 12.078125 26.871094 12.058594 C 26.429688 11.546875 25.785156 11.261719 25.121094 11.199219 C 25.058594 11.195312 24.996094 11.195312 24.933594 11.195312 C 24.914062 11.195312 24.894531 11.195312 24.878906 11.195312 C 24.839844 11.195312 24.800781 11.195312 24.761719 11.195312 C 24.699219 11.195312 24.636719 11.195312 24.574219 11.191406 C 24.394531 11.191406 24.21875 11.191406 24.042969 11.1875 C 23.933594 11.1875 23.824219 11.1875 23.714844 11.1875 C 23.675781 11.1875 23.632812 11.1875 23.59375 11.1875 C 23.234375 11.183594 22.871094 11.171875 22.519531 11.09375 C 22.5 11.089844 22.480469 11.082031 22.460938 11.078125 C 21.605469 10.886719 20.769531 10.421875 20.207031 9.746094 C 20.191406 9.726562 20.175781 9.707031 20.15625 9.6875 C 19.394531 8.824219 19.089844 7.707031 19.144531 6.570312 C 19.152344 6.421875 19.175781 6.269531 19.203125 6.121094 C 19.207031 6.105469 19.210938 6.085938 19.214844 6.066406 C 19.371094 5.285156 19.75 4.578125 20.296875 4.003906 C 20.320312 3.980469 20.34375 3.957031 20.363281 3.9375 C 21.1875 3.054688 22.363281 2.65625 23.550781 2.660156 Z M 23.550781 2.660156 "/>
<path style=" stroke:none;fill-rule:nonzero;fill:rgb(5.490196%,57.254905%,89.411765%);fill-opacity:1;" d="M 24.546875 6.714844 C 25.070312 6.714844 25.070312 6.714844 25.320312 6.734375 C 25.347656 6.734375 25.375 6.738281 25.402344 6.738281 C 25.480469 6.746094 25.554688 6.75 25.632812 6.757812 C 25.652344 6.757812 25.667969 6.757812 25.6875 6.761719 C 27.433594 6.902344 29.132812 7.816406 30.277344 9.132812 C 30.320312 9.1875 30.359375 9.242188 30.402344 9.296875 C 30.421875 9.316406 30.441406 9.339844 30.457031 9.363281 C 31.296875 10.375 31.789062 11.644531 31.960938 12.9375 C 31.960938 12.957031 31.964844 12.976562 31.964844 12.996094 C 32.042969 13.605469 32.039062 14.257812 31.9375 14.863281 C 31.933594 14.886719 31.929688 14.90625 31.929688 14.929688 C 31.65625 16.574219 30.773438 18.214844 29.441406 19.246094 C 29.417969 19.265625 29.394531 19.285156 29.371094 19.300781 C 28.273438 20.199219 26.933594 20.707031 25.53125 20.84375 C 25.511719 20.84375 25.496094 20.84375 25.476562 20.847656 C 25.332031 20.859375 25.1875 20.867188 25.039062 20.863281 C 25.015625 20.863281 24.992188 20.863281 24.96875 20.863281 C 24.890625 20.863281 24.8125 20.863281 24.730469 20.863281 C 24.675781 20.863281 24.617188 20.863281 24.5625 20.863281 C 24.4375 20.863281 24.3125 20.863281 24.1875 20.863281 C 24.003906 20.863281 23.820312 20.863281 23.636719 20.863281 C 23.328125 20.863281 23.015625 20.863281 22.707031 20.863281 C 22.398438 20.863281 22.09375 20.863281 21.785156 20.863281 C 21.769531 20.863281 21.75 20.863281 21.730469 20.863281 C 21.632812 20.863281 21.535156 20.863281 21.4375 20.863281 C 20.75 20.863281 20.066406 20.863281 19.378906 20.863281 C 18.710938 20.863281 18.046875 20.863281 17.378906 20.863281 C 17.359375 20.863281 17.339844 20.863281 17.316406 20.863281 C 17.109375 20.863281 16.90625 20.863281 16.699219 20.863281 C 16.277344 20.863281 15.855469 20.863281 15.4375 20.863281 C 15.40625 20.863281 15.40625 20.863281 15.378906 20.863281 C 14.378906 20.863281 13.378906 20.863281 12.378906 20.863281 C 12.363281 20.863281 12.351562 20.863281 12.335938 20.863281 C 12.058594 20.863281 11.78125 20.863281 11.507812 20.863281 C 11.507812 20.28125 11.507812 19.699219 11.507812 19.101562 C 11.671875 19.101562 11.839844 19.101562 12.011719 19.101562 C 13.117188 19.101562 14.222656 19.097656 15.328125 19.097656 C 15.347656 19.097656 15.363281 19.097656 15.382812 19.097656 C 15.792969 19.097656 16.207031 19.097656 16.617188 19.097656 C 16.816406 19.097656 17.019531 19.09375 17.21875 19.09375 C 17.238281 19.09375 17.257812 19.09375 17.28125 19.09375 C 17.929688 19.09375 18.574219 19.09375 19.222656 19.09375 C 19.890625 19.09375 20.558594 19.089844 21.222656 19.089844 C 21.316406 19.089844 21.414062 19.089844 21.507812 19.089844 C 21.535156 19.089844 21.535156 19.089844 21.5625 19.089844 C 21.859375 19.089844 22.160156 19.089844 22.457031 19.089844 C 22.757812 19.089844 23.054688 19.089844 23.355469 19.089844 C 23.535156 19.089844 23.710938 19.085938 23.890625 19.085938 C 24.007812 19.085938 24.128906 19.085938 24.246094 19.085938 C 24.316406 19.085938 24.382812 19.085938 24.449219 19.085938 C 24.730469 19.085938 25.007812 19.082031 25.285156 19.0625 C 25.308594 19.0625 25.335938 19.058594 25.359375 19.058594 C 26.378906 18.984375 27.398438 18.605469 28.191406 17.957031 C 28.21875 17.933594 28.21875 17.933594 28.25 17.910156 C 28.398438 17.789062 28.542969 17.660156 28.683594 17.523438 C 28.699219 17.511719 28.714844 17.496094 28.730469 17.480469 C 28.839844 17.375 28.933594 17.257812 29.03125 17.136719 C 29.042969 17.121094 29.058594 17.105469 29.070312 17.089844 C 29.941406 16.042969 30.320312 14.644531 30.203125 13.304688 C 30.070312 11.972656 29.4375 10.644531 28.398438 9.785156 C 28.28125 9.695312 28.167969 9.605469 28.046875 9.519531 C 28.039062 9.511719 28.027344 9.503906 28.015625 9.496094 C 27.394531 9.035156 26.652344 8.738281 25.898438 8.597656 C 25.882812 8.597656 25.867188 8.59375 25.851562 8.589844 C 25.421875 8.511719 24.980469 8.503906 24.546875 8.476562 C 24.546875 7.894531 24.546875 7.3125 24.546875 6.714844 Z M 24.546875 6.714844 "/>
<path style=" stroke:none;fill-rule:nonzero;fill:rgb(5.490196%,57.254905%,89.411765%);fill-opacity:1;" d="M 23.226562 -0.00390625 C 23.261719 -0.00390625 23.296875 -0.00390625 23.332031 -0.00390625 C 23.421875 -0.00390625 23.515625 -0.00390625 23.609375 -0.00390625 C 23.710938 -0.00390625 23.8125 -0.00390625 23.910156 -0.00390625 C 24.085938 -0.00390625 24.257812 -0.00390625 24.433594 -0.00390625 C 24.683594 -0.00390625 24.9375 0 25.1875 0 C 25.597656 0 26.003906 0 26.414062 0 C 26.8125 0 27.207031 0 27.605469 0 C 27.628906 0 27.652344 0 27.679688 0 C 27.800781 0 27.921875 0 28.046875 0 C 29.0625 0 30.082031 0 31.097656 0 C 31.097656 0.582031 31.097656 1.160156 31.097656 1.761719 C 30.859375 1.761719 30.617188 1.761719 30.367188 1.761719 C 29.59375 1.761719 28.820312 1.765625 28.050781 1.765625 C 27.929688 1.765625 27.808594 1.765625 27.6875 1.765625 C 27.652344 1.765625 27.652344 1.765625 27.617188 1.765625 C 27.230469 1.765625 26.84375 1.765625 26.457031 1.769531 C 26.058594 1.769531 25.660156 1.769531 25.265625 1.769531 C 25.019531 1.769531 24.773438 1.769531 24.53125 1.769531 C 24.359375 1.769531 24.191406 1.769531 24.023438 1.773438 C 23.929688 1.773438 23.832031 1.773438 23.734375 1.773438 C 23.339844 1.773438 22.953125 1.777344 22.5625 1.84375 C 22.539062 1.847656 22.539062 1.847656 22.515625 1.851562 C 22.4375 1.863281 22.355469 1.878906 22.273438 1.898438 C 22.25 1.902344 22.226562 1.90625 22.203125 1.914062 C 21.257812 2.128906 20.433594 2.628906 19.738281 3.296875 C 19.722656 3.3125 19.707031 3.324219 19.691406 3.339844 C 19.578125 3.445312 19.484375 3.566406 19.386719 3.683594 C 19.371094 3.707031 19.355469 3.726562 19.339844 3.746094 C 18.703125 4.554688 18.265625 5.609375 18.257812 6.648438 C 18.257812 6.671875 18.257812 6.671875 18.257812 6.699219 C 18.25 7.859375 18.519531 8.988281 19.222656 9.929688 C 19.242188 9.953125 19.257812 9.976562 19.277344 10 C 19.398438 10.164062 19.53125 10.316406 19.675781 10.460938 C 19.6875 10.476562 19.703125 10.488281 19.714844 10.503906 C 19.902344 10.699219 20.089844 10.878906 20.308594 11.035156 C 20.339844 11.058594 20.339844 11.058594 20.375 11.082031 C 20.539062 11.199219 20.707031 11.300781 20.882812 11.398438 C 20.910156 11.414062 20.933594 11.429688 20.960938 11.445312 C 21.863281 11.96875 22.863281 12.058594 23.882812 12.066406 C 23.925781 12.066406 23.972656 12.066406 24.019531 12.066406 C 24.140625 12.066406 24.261719 12.070312 24.378906 12.070312 C 24.523438 12.070312 24.667969 12.074219 24.8125 12.074219 C 25.03125 12.074219 25.25 12.078125 25.46875 12.078125 C 25.46875 12.660156 25.46875 13.242188 25.46875 13.839844 C 25.175781 13.839844 24.886719 13.839844 24.59375 13.84375 C 24.4375 13.84375 24.277344 13.84375 24.121094 13.84375 C 23.984375 13.84375 23.847656 13.84375 23.707031 13.84375 C 23.65625 13.84375 23.605469 13.84375 23.550781 13.84375 C 23.117188 13.847656 22.6875 13.828125 22.257812 13.753906 C 22.222656 13.746094 22.222656 13.746094 22.183594 13.742188 C 21.554688 13.628906 20.96875 13.433594 20.390625 13.164062 C 20.375 13.15625 20.355469 13.148438 20.335938 13.140625 C 19.765625 12.871094 19.25 12.511719 18.785156 12.085938 C 18.742188 12.046875 18.699219 12.007812 18.65625 11.972656 C 18.4375 11.78125 18.234375 11.570312 18.058594 11.34375 C 18.039062 11.320312 18.019531 11.296875 18 11.273438 C 17.769531 10.992188 17.566406 10.695312 17.386719 10.378906 C 17.367188 10.351562 17.351562 10.324219 17.335938 10.292969 C 16.878906 9.515625 16.617188 8.632812 16.5 7.738281 C 16.5 7.722656 16.496094 7.703125 16.496094 7.683594 C 16.417969 7.089844 16.421875 6.445312 16.523438 5.855469 C 16.527344 5.832031 16.527344 5.8125 16.53125 5.789062 C 16.726562 4.621094 17.214844 3.496094 17.976562 2.578125 C 17.984375 2.570312 17.992188 2.558594 18 2.550781 C 18.230469 2.269531 18.472656 1.996094 18.746094 1.757812 C 18.785156 1.730469 18.820312 1.699219 18.855469 1.664062 C 19.910156 0.734375 21.269531 0.179688 22.664062 0.0195312 C 22.679688 0.0195312 22.695312 0.015625 22.710938 0.015625 C 22.882812 -0.00390625 23.054688 -0.00390625 23.226562 -0.00390625 Z M 23.226562 -0.00390625 "/>
<path style=" stroke:none;fill-rule:nonzero;fill:rgb(5.490196%,57.254905%,89.411765%);fill-opacity:1;" d="M 0 9.457031 C 3.886719 9.457031 7.769531 9.457031 11.773438 9.457031 C 11.773438 10.027344 11.773438 10.59375 11.773438 11.179688 C 9.5625 11.179688 7.355469 11.179688 5.078125 11.179688 C 5.078125 14.402344 5.078125 17.625 5.078125 20.945312 C 4.496094 20.945312 3.914062 20.945312 3.316406 20.945312 C 3.316406 17.722656 3.316406 14.5 3.316406 11.179688 C 2.222656 11.179688 1.128906 11.179688 0 11.179688 C 0 10.609375 0 10.042969 0 9.457031 Z M 0 9.457031 "/>
<path style=" stroke:none;fill-rule:nonzero;fill:rgb(5.490196%,57.254905%,89.411765%);fill-opacity:1;" d="M 3.316406 0 C 7.492188 0 11.667969 0 15.96875 0 C 15.96875 0.582031 15.96875 1.160156 15.96875 1.761719 C 12.375 1.761719 8.78125 1.761719 5.078125 1.761719 C 5.078125 3.691406 5.078125 5.625 5.078125 7.617188 C 4.496094 7.617188 3.914062 7.617188 3.316406 7.617188 C 3.316406 5.101562 3.316406 2.589844 3.316406 0 Z M 3.316406 0 "/>
<path style=" stroke:none;fill-rule:nonzero;fill:rgb(5.490196%,57.254905%,89.411765%);fill-opacity:1;" d="M 6 2.660156 C 9.289062 2.660156 12.578125 2.660156 15.96875 2.660156 C 15.96875 3.25 15.96875 3.835938 15.96875 4.441406 C 13.261719 4.441406 10.550781 4.441406 7.757812 4.441406 C 7.757812 5.488281 7.757812 6.539062 7.757812 7.617188 C 7.179688 7.617188 6.597656 7.617188 6 7.617188 C 6 5.980469 6 4.347656 6 2.660156 Z M 6 2.660156 "/>
<path style=" stroke:none;fill-rule:nonzero;fill:rgb(5.490196%,57.254905%,89.411765%);fill-opacity:1;" d="M 6 12.078125 C 7.902344 12.078125 9.808594 12.078125 11.773438 12.078125 C 11.773438 12.660156 11.773438 13.242188 11.773438 13.839844 C 10.449219 13.839844 9.125 13.839844 7.757812 13.839844 C 7.757812 16.183594 7.757812 18.527344 7.757812 20.945312 C 7.179688 20.945312 6.597656 20.945312 6 20.945312 C 6 18.019531 6 15.09375 6 12.078125 Z M 6 12.078125 "/>
<path style=" stroke:none;fill-rule:nonzero;fill:rgb(5.490196%,57.254905%,89.411765%);fill-opacity:1;" d="M 15.621094 23.113281 C 17.328125 23.113281 17.328125 23.113281 17.683594 23.457031 C 17.972656 23.753906 18.050781 24.117188 18.046875 24.523438 C 18.046875 24.550781 18.046875 24.578125 18.046875 24.605469 C 18.039062 24.9375 17.96875 25.308594 17.726562 25.558594 C 17.125 26.082031 16.433594 25.917969 15.621094 25.917969 C 15.621094 24.992188 15.621094 24.066406 15.621094 23.113281 Z M 16.195312 23.585938 C 16.195312 24.199219 16.195312 24.816406 16.195312 25.449219 C 16.742188 25.460938 16.742188 25.460938 17.214844 25.269531 C 17.417969 25.058594 17.46875 24.773438 17.464844 24.484375 C 17.453125 24.207031 17.40625 23.980469 17.207031 23.773438 C 16.9375 23.53125 16.523438 23.585938 16.195312 23.585938 Z M 16.195312 23.585938 "/>
<path style=" stroke:none;fill-rule:nonzero;fill:rgb(5.490196%,57.254905%,89.411765%);fill-opacity:1;" d="M 17.164062 28.757812 C 17.445312 28.984375 17.578125 29.332031 17.621094 29.679688 C 17.671875 30.140625 17.617188 30.609375 17.339844 30.996094 C 17.148438 31.222656 16.875 31.359375 16.582031 31.40625 C 16.152344 31.4375 15.753906 31.40625 15.410156 31.113281 C 15.132812 30.851562 15.011719 30.503906 15 30.125 C 14.996094 30.074219 14.996094 30.019531 15 29.964844 C 15 29.953125 15 29.9375 15 29.925781 C 15 29.503906 15.089844 29.125 15.398438 28.820312 C 15.867188 28.398438 16.660156 28.410156 17.164062 28.757812 Z M 15.804688 29.195312 C 15.617188 29.414062 15.566406 29.722656 15.578125 30.003906 C 15.597656 30.296875 15.636719 30.570312 15.859375 30.78125 C 16.019531 30.914062 16.238281 30.933594 16.441406 30.914062 C 16.617188 30.882812 16.769531 30.8125 16.875 30.664062 C 17.066406 30.351562 17.085938 29.9375 17.007812 29.585938 C 16.957031 29.371094 16.867188 29.222656 16.6875 29.09375 C 16.40625 28.9375 16.042969 28.988281 15.804688 29.195312 Z M 15.804688 29.195312 "/>
<path style=" stroke:none;fill-rule:nonzero;fill:rgb(5.490196%,57.254905%,89.411765%);fill-opacity:1;" d="M 23.367188 23.3125 C 23.648438 23.539062 23.78125 23.886719 23.824219 24.234375 C 23.875 24.695312 23.820312 25.164062 23.542969 25.550781 C 23.351562 25.777344 23.078125 25.914062 22.785156 25.960938 C 22.355469 25.992188 21.957031 25.960938 21.613281 25.667969 C 21.339844 25.40625 21.214844 25.058594 21.203125 24.679688 C 21.199219 24.625 21.199219 24.574219 21.203125 24.519531 C 21.203125 24.507812 21.203125 24.492188 21.203125 24.480469 C 21.203125 24.058594 21.292969 23.679688 21.601562 23.375 C 22.070312 22.953125 22.863281 22.964844 23.367188 23.3125 Z M 22.007812 23.75 C 21.820312 23.96875 21.769531 24.277344 21.78125 24.558594 C 21.800781 24.851562 21.839844 25.125 22.0625 25.335938 C 22.222656 25.46875 22.441406 25.488281 22.644531 25.46875 C 22.820312 25.4375 22.972656 25.367188 23.078125 25.21875 C 23.269531 24.90625 23.289062 24.492188 23.214844 24.140625 C 23.160156 23.921875 23.070312 23.777344 22.890625 23.648438 C 22.609375 23.492188 22.246094 23.542969 22.007812 23.75 Z M 22.007812 23.75 "/>
<path style=" stroke:none;fill-rule:nonzero;fill:rgb(5.490196%,57.254905%,89.411765%);fill-opacity:1;" d="M 13 23.113281 C 14.589844 23.113281 14.589844 23.113281 14.824219 23.320312 C 14.988281 23.492188 15.027344 23.699219 15.027344 23.933594 C 15.015625 24.105469 14.949219 24.257812 14.824219 24.378906 C 14.730469 24.453125 14.625 24.511719 14.515625 24.566406 C 14.535156 24.578125 14.550781 24.589844 14.570312 24.601562 C 14.835938 24.78125 14.910156 25.148438 15.007812 25.441406 C 15.023438 25.496094 15.042969 25.550781 15.0625 25.605469 C 15.074219 25.640625 15.085938 25.675781 15.097656 25.710938 C 15.101562 25.726562 15.105469 25.742188 15.113281 25.757812 C 15.148438 25.875 15.148438 25.875 15.148438 25.917969 C 14.953125 25.917969 14.757812 25.917969 14.554688 25.917969 C 14.539062 25.867188 14.523438 25.820312 14.507812 25.765625 C 14.488281 25.71875 14.472656 25.667969 14.457031 25.617188 C 14.445312 25.582031 14.433594 25.550781 14.421875 25.515625 C 14.320312 25.148438 14.320312 25.148438 14.125 24.835938 C 13.972656 24.765625 13.972656 24.765625 13.574219 24.753906 C 13.574219 25.136719 13.574219 25.523438 13.574219 25.917969 C 13.382812 25.917969 13.195312 25.917969 13 25.917969 C 13 24.992188 13 24.066406 13 23.113281 Z M 13.574219 23.566406 C 13.574219 23.808594 13.574219 24.050781 13.574219 24.300781 C 13.671875 24.304688 13.769531 24.304688 13.871094 24.304688 C 13.902344 24.304688 13.933594 24.308594 13.964844 24.308594 C 13.988281 24.308594 14.015625 24.308594 14.039062 24.308594 C 14.066406 24.308594 14.089844 24.308594 14.117188 24.308594 C 14.210938 24.300781 14.292969 24.273438 14.367188 24.210938 C 14.460938 24.085938 14.46875 23.984375 14.453125 23.832031 C 14.425781 23.734375 14.386719 23.679688 14.3125 23.617188 C 14.214844 23.566406 14.140625 23.5625 14.03125 23.5625 C 14.003906 23.5625 13.980469 23.5625 13.957031 23.5625 C 13.925781 23.5625 13.898438 23.5625 13.867188 23.5625 C 13.722656 23.5625 13.722656 23.5625 13.574219 23.566406 Z M 13.574219 23.566406 "/>
<path style=" stroke:none;fill-rule:nonzero;fill:rgb(5.490196%,57.254905%,89.411765%);fill-opacity:1;" d="M 18.199219 28.558594 C 19.796875 28.558594 19.796875 28.558594 20.023438 28.765625 C 20.074219 28.824219 20.109375 28.882812 20.144531 28.949219 C 20.152344 28.960938 20.160156 28.976562 20.167969 28.988281 C 20.242188 29.171875 20.242188 29.4375 20.171875 29.621094 C 20.074219 29.816406 19.914062 29.917969 19.714844 29.992188 C 19.730469 30.003906 19.742188 30.015625 19.757812 30.023438 C 20.023438 30.25 20.101562 30.585938 20.207031 30.910156 C 20.226562 30.964844 20.242188 31.019531 20.261719 31.074219 C 20.273438 31.109375 20.285156 31.144531 20.296875 31.179688 C 20.300781 31.195312 20.308594 31.210938 20.3125 31.230469 C 20.351562 31.34375 20.351562 31.34375 20.351562 31.367188 C 20.15625 31.367188 19.957031 31.367188 19.757812 31.367188 C 19.707031 31.238281 19.65625 31.113281 19.617188 30.984375 C 19.605469 30.953125 19.59375 30.917969 19.585938 30.886719 C 19.566406 30.835938 19.550781 30.785156 19.535156 30.738281 C 19.519531 30.6875 19.503906 30.636719 19.488281 30.589844 C 19.484375 30.574219 19.480469 30.558594 19.472656 30.542969 C 19.445312 30.453125 19.410156 30.375 19.347656 30.300781 C 19.179688 30.207031 19.179688 30.207031 18.773438 30.199219 C 18.773438 30.582031 18.773438 30.96875 18.773438 31.367188 C 18.585938 31.367188 18.394531 31.367188 18.199219 31.367188 C 18.199219 30.441406 18.199219 29.515625 18.199219 28.558594 Z M 18.773438 29.011719 C 18.773438 29.253906 18.773438 29.496094 18.773438 29.746094 C 18.871094 29.75 18.96875 29.75 19.070312 29.753906 C 19.101562 29.753906 19.132812 29.753906 19.164062 29.753906 C 19.316406 29.757812 19.425781 29.753906 19.550781 29.667969 C 19.648438 29.550781 19.667969 29.445312 19.65625 29.296875 C 19.632812 29.210938 19.609375 29.148438 19.546875 29.085938 C 19.441406 29.023438 19.347656 29.003906 19.226562 29.007812 C 19.191406 29.007812 19.191406 29.007812 19.152344 29.007812 C 19.109375 29.007812 19.109375 29.007812 19.0625 29.007812 C 18.921875 29.007812 18.921875 29.007812 18.773438 29.011719 Z M 18.773438 29.011719 "/>
<path style=" stroke:none;fill-rule:nonzero;fill:rgb(5.490196%,57.254905%,89.411765%);fill-opacity:1;" d="M 3.582031 23.113281 C 3.824219 23.113281 4.070312 23.113281 4.320312 23.113281 C 4.414062 23.390625 4.511719 23.667969 4.609375 23.945312 C 4.652344 24.074219 4.695312 24.203125 4.742188 24.332031 C 4.925781 24.859375 5.105469 25.386719 5.28125 25.917969 C 5.078125 25.917969 4.875 25.917969 4.667969 25.917969 C 4.601562 25.714844 4.53125 25.515625 4.464844 25.304688 C 4.113281 25.296875 3.761719 25.292969 3.398438 25.285156 C 3.386719 25.34375 3.371094 25.40625 3.359375 25.46875 C 3.347656 25.507812 3.335938 25.546875 3.324219 25.585938 C 3.316406 25.601562 3.3125 25.621094 3.304688 25.640625 C 3.296875 25.660156 3.289062 25.683594 3.285156 25.707031 C 3.261719 25.777344 3.238281 25.847656 3.214844 25.917969 C 3.019531 25.917969 2.824219 25.917969 2.621094 25.917969 C 2.667969 25.710938 2.667969 25.710938 2.699219 25.617188 C 2.707031 25.597656 2.714844 25.574219 2.722656 25.550781 C 2.730469 25.53125 2.738281 25.507812 2.746094 25.484375 C 2.757812 25.445312 2.757812 25.445312 2.773438 25.410156 C 2.792969 25.34375 2.816406 25.277344 2.839844 25.210938 C 2.863281 25.140625 2.886719 25.070312 2.914062 25.003906 C 2.941406 24.917969 2.972656 24.832031 3 24.746094 C 3.066406 24.5625 3.128906 24.382812 3.1875 24.203125 C 3.21875 24.113281 3.25 24.023438 3.28125 23.933594 C 3.296875 23.886719 3.316406 23.835938 3.332031 23.789062 C 3.355469 23.722656 3.378906 23.652344 3.402344 23.585938 C 3.40625 23.566406 3.414062 23.546875 3.421875 23.527344 C 3.46875 23.386719 3.523438 23.253906 3.582031 23.113281 Z M 3.910156 23.707031 C 3.859375 23.859375 3.8125 24.011719 3.761719 24.160156 C 3.746094 24.214844 3.726562 24.265625 3.710938 24.316406 C 3.6875 24.390625 3.664062 24.464844 3.636719 24.539062 C 3.632812 24.5625 3.625 24.585938 3.617188 24.609375 C 3.609375 24.628906 3.601562 24.652344 3.59375 24.671875 C 3.589844 24.691406 3.582031 24.710938 3.574219 24.730469 C 3.5625 24.769531 3.5625 24.769531 3.5625 24.792969 C 3.804688 24.792969 4.050781 24.792969 4.300781 24.792969 C 4.261719 24.648438 4.21875 24.507812 4.175781 24.367188 C 4.164062 24.34375 4.164062 24.34375 4.15625 24.316406 C 4.144531 24.277344 4.132812 24.242188 4.121094 24.203125 C 4.101562 24.148438 4.082031 24.089844 4.066406 24.03125 C 4.054688 23.996094 4.042969 23.960938 4.03125 23.925781 C 4.023438 23.90625 4.019531 23.890625 4.011719 23.871094 C 3.984375 23.789062 3.984375 23.789062 3.953125 23.707031 C 3.9375 23.707031 3.925781 23.707031 3.910156 23.707031 Z M 3.910156 23.707031 "/>
<path style=" stroke:none;fill-rule:nonzero;fill:rgb(5.490196%,57.254905%,89.411765%);fill-opacity:1;" d="M 19.246094 23.113281 C 19.496094 23.113281 19.746094 23.113281 20.003906 23.113281 C 20.023438 23.179688 20.046875 23.242188 20.066406 23.308594 C 20.210938 23.734375 20.359375 24.160156 20.507812 24.585938 C 20.511719 24.605469 20.519531 24.621094 20.523438 24.640625 C 20.5625 24.746094 20.601562 24.855469 20.636719 24.960938 C 20.695312 25.125 20.753906 25.289062 20.808594 25.453125 C 20.832031 25.511719 20.851562 25.570312 20.871094 25.628906 C 20.882812 25.664062 20.894531 25.699219 20.910156 25.734375 C 20.914062 25.75 20.917969 25.769531 20.925781 25.785156 C 20.964844 25.898438 20.964844 25.898438 20.964844 25.917969 C 20.761719 25.917969 20.558594 25.917969 20.351562 25.917969 C 20.320312 25.835938 20.292969 25.75 20.261719 25.667969 C 20.253906 25.640625 20.242188 25.609375 20.234375 25.582031 C 20.21875 25.542969 20.203125 25.5 20.191406 25.460938 C 20.183594 25.433594 20.171875 25.410156 20.164062 25.386719 C 20.144531 25.324219 20.144531 25.324219 20.144531 25.285156 C 19.792969 25.285156 19.441406 25.285156 19.082031 25.285156 C 19.066406 25.34375 19.054688 25.40625 19.039062 25.46875 C 19.03125 25.507812 19.019531 25.542969 19.003906 25.582031 C 19 25.597656 18.992188 25.617188 18.988281 25.636719 C 18.980469 25.65625 18.972656 25.675781 18.96875 25.695312 C 18.960938 25.714844 18.953125 25.734375 18.949219 25.753906 C 18.898438 25.894531 18.898438 25.894531 18.875 25.917969 C 18.832031 25.921875 18.789062 25.921875 18.746094 25.921875 C 18.71875 25.921875 18.691406 25.921875 18.664062 25.921875 C 18.636719 25.921875 18.605469 25.921875 18.578125 25.921875 C 18.550781 25.921875 18.519531 25.921875 18.492188 25.921875 C 18.421875 25.921875 18.351562 25.917969 18.28125 25.917969 C 18.464844 25.363281 18.65625 24.808594 18.847656 24.257812 C 18.898438 24.113281 18.949219 23.96875 18.996094 23.828125 C 19.082031 23.589844 19.164062 23.351562 19.246094 23.113281 Z M 19.59375 23.707031 C 19.550781 23.835938 19.507812 23.964844 19.464844 24.09375 C 19.449219 24.136719 19.433594 24.179688 19.421875 24.222656 C 19.398438 24.285156 19.378906 24.347656 19.355469 24.410156 C 19.347656 24.441406 19.347656 24.441406 19.335938 24.46875 C 19.332031 24.488281 19.324219 24.507812 19.320312 24.527344 C 19.3125 24.542969 19.308594 24.558594 19.300781 24.574219 C 19.28125 24.648438 19.261719 24.71875 19.246094 24.792969 C 19.488281 24.792969 19.730469 24.792969 19.980469 24.792969 C 19.941406 24.644531 19.902344 24.503906 19.851562 24.359375 C 19.84375 24.328125 19.84375 24.328125 19.832031 24.300781 C 19.8125 24.242188 19.792969 24.183594 19.773438 24.125 C 19.761719 24.082031 19.746094 24.042969 19.734375 24.003906 C 19.699219 23.90625 19.667969 23.804688 19.632812 23.707031 C 19.621094 23.707031 19.605469 23.707031 19.59375 23.707031 Z M 19.59375 23.707031 "/>
<path style=" stroke:none;fill-rule:nonzero;fill:rgb(5.490196%,57.254905%,89.411765%);fill-opacity:1;" d="M 24.382812 23.113281 C 24.566406 23.113281 24.75 23.113281 24.9375 23.113281 C 24.9375 23.167969 24.9375 23.226562 24.9375 23.28125 C 24.9375 23.464844 24.941406 23.648438 24.941406 23.832031 C 24.941406 23.941406 24.941406 24.054688 24.945312 24.164062 C 24.945312 24.273438 24.945312 24.378906 24.945312 24.488281 C 24.945312 24.527344 24.945312 24.566406 24.945312 24.609375 C 24.9375 24.992188 24.9375 24.992188 25.101562 25.324219 C 25.296875 25.445312 25.484375 25.476562 25.710938 25.4375 C 25.832031 25.40625 25.921875 25.359375 26 25.265625 C 26.074219 25.128906 26.09375 25.007812 26.09375 24.859375 C 26.09375 24.828125 26.09375 24.828125 26.09375 24.800781 C 26.09375 24.738281 26.09375 24.675781 26.09375 24.613281 C 26.097656 24.570312 26.097656 24.527344 26.097656 24.484375 C 26.097656 24.371094 26.097656 24.257812 26.097656 24.144531 C 26.097656 24.027344 26.097656 23.910156 26.101562 23.796875 C 26.101562 23.570312 26.101562 23.339844 26.105469 23.113281 C 26.292969 23.113281 26.480469 23.113281 26.675781 23.113281 C 26.679688 23.359375 26.679688 23.605469 26.679688 23.851562 C 26.679688 23.964844 26.679688 24.078125 26.679688 24.195312 C 26.683594 24.304688 26.683594 24.414062 26.683594 24.523438 C 26.683594 24.566406 26.683594 24.609375 26.683594 24.648438 C 26.6875 25.023438 26.660156 25.335938 26.449219 25.660156 C 26.1875 25.910156 25.886719 25.964844 25.539062 25.964844 C 25.515625 25.964844 25.488281 25.964844 25.464844 25.964844 C 25.148438 25.96875 24.863281 25.898438 24.628906 25.679688 C 24.363281 25.390625 24.371094 25.019531 24.375 24.652344 C 24.375 24.609375 24.375 24.5625 24.375 24.519531 C 24.375 24.402344 24.378906 24.285156 24.378906 24.167969 C 24.378906 24.050781 24.378906 23.933594 24.378906 23.8125 C 24.378906 23.578125 24.382812 23.347656 24.382812 23.113281 Z M 24.382812 23.113281 "/>
<path style=" stroke:none;fill-rule:nonzero;fill:rgb(5.490196%,57.254905%,89.411765%);fill-opacity:1;" d="M 12.058594 28.703125 C 12.117188 28.75 12.171875 28.796875 12.222656 28.847656 C 12.191406 28.941406 12.140625 29.007812 12.078125 29.085938 C 12.011719 29.167969 12.011719 29.167969 11.957031 29.257812 C 11.878906 29.246094 11.832031 29.226562 11.769531 29.179688 C 11.554688 29.03125 11.351562 29.007812 11.097656 29.03125 C 11.035156 29.046875 10.988281 29.0625 10.933594 29.09375 C 10.914062 29.097656 10.890625 29.105469 10.871094 29.113281 C 10.808594 29.21875 10.820312 29.332031 10.84375 29.449219 C 10.878906 29.515625 10.902344 29.519531 10.972656 29.542969 C 11 29.550781 11 29.550781 11.023438 29.5625 C 11.136719 29.597656 11.246094 29.628906 11.359375 29.652344 C 12.035156 29.804688 12.035156 29.804688 12.230469 30.09375 C 12.351562 30.316406 12.359375 30.589844 12.292969 30.828125 C 12.214844 31.050781 12.09375 31.195312 11.890625 31.308594 C 11.554688 31.46875 11.105469 31.457031 10.757812 31.351562 C 10.511719 31.257812 10.289062 31.128906 10.15625 30.894531 C 10.253906 30.761719 10.355469 30.632812 10.460938 30.503906 C 10.519531 30.511719 10.554688 30.515625 10.597656 30.558594 C 10.609375 30.574219 10.621094 30.585938 10.628906 30.601562 C 10.761719 30.761719 10.9375 30.855469 11.136719 30.894531 C 11.308594 30.90625 11.480469 30.917969 11.628906 30.8125 C 11.703125 30.738281 11.714844 30.679688 11.722656 30.578125 C 11.714844 30.476562 11.703125 30.417969 11.628906 30.339844 C 11.464844 30.242188 11.28125 30.210938 11.097656 30.171875 C 10.8125 30.105469 10.519531 30.015625 10.347656 29.761719 C 10.226562 29.542969 10.210938 29.296875 10.269531 29.058594 C 10.335938 28.867188 10.472656 28.722656 10.648438 28.628906 C 11.066406 28.4375 11.667969 28.449219 12.058594 28.703125 Z M 12.058594 28.703125 "/>
<path style=" stroke:none;fill-rule:nonzero;fill:rgb(5.490196%,57.254905%,89.411765%);fill-opacity:1;" d="M 29.011719 23.257812 C 29.066406 23.304688 29.121094 23.351562 29.175781 23.402344 C 29.144531 23.496094 29.089844 23.5625 29.03125 23.640625 C 28.964844 23.722656 28.964844 23.722656 28.910156 23.8125 C 28.832031 23.800781 28.785156 23.78125 28.722656 23.734375 C 28.507812 23.585938 28.300781 23.5625 28.046875 23.585938 C 27.988281 23.601562 27.941406 23.617188 27.886719 23.648438 C 27.863281 23.652344 27.84375 23.660156 27.824219 23.667969 C 27.761719 23.773438 27.773438 23.886719 27.796875 24.003906 C 27.832031 24.070312 27.855469 24.074219 27.925781 24.097656 C 27.949219 24.105469 27.949219 24.105469 27.976562 24.113281 C 28.085938 24.152344 28.199219 24.179688 28.3125 24.207031 C 28.988281 24.359375 28.988281 24.359375 29.179688 24.648438 C 29.300781 24.871094 29.3125 25.140625 29.242188 25.382812 C 29.167969 25.601562 29.046875 25.75 28.839844 25.863281 C 28.507812 26.019531 28.054688 26.007812 27.707031 25.902344 C 27.460938 25.8125 27.238281 25.683594 27.105469 25.449219 C 27.203125 25.316406 27.308594 25.1875 27.414062 25.058594 C 27.472656 25.066406 27.507812 25.070312 27.550781 25.113281 C 27.5625 25.128906 27.570312 25.140625 27.582031 25.15625 C 27.714844 25.3125 27.886719 25.40625 28.089844 25.449219 C 28.261719 25.460938 28.433594 25.472656 28.582031 25.367188 C 28.65625 25.292969 28.667969 25.230469 28.671875 25.132812 C 28.667969 25.03125 28.652344 24.96875 28.582031 24.894531 C 28.417969 24.796875 28.234375 24.765625 28.050781 24.726562 C 27.765625 24.660156 27.472656 24.570312 27.300781 24.316406 C 27.179688 24.097656 27.164062 23.851562 27.222656 23.613281 C 27.289062 23.421875 27.425781 23.277344 27.601562 23.183594 C 28.019531 22.992188 28.621094 23 29.011719 23.257812 Z M 29.011719 23.257812 "/>
<path style=" stroke:none;fill-rule:nonzero;fill:rgb(5.490196%,57.254905%,89.411765%);fill-opacity:1;" d="M 20.820312 28.558594 C 21.4375 28.558594 22.050781 28.558594 22.683594 28.558594 C 22.683594 28.714844 22.683594 28.871094 22.683594 29.03125 C 22.257812 29.03125 21.832031 29.03125 21.394531 29.03125 C 21.394531 29.242188 21.394531 29.449219 21.394531 29.667969 C 21.765625 29.667969 22.136719 29.667969 22.519531 29.667969 C 22.519531 29.820312 22.519531 29.976562 22.519531 30.136719 C 22.148438 30.136719 21.777344 30.136719 21.394531 30.136719 C 21.394531 30.386719 21.394531 30.636719 21.394531 30.894531 C 21.832031 30.894531 22.273438 30.894531 22.726562 30.894531 C 22.726562 31.050781 22.726562 31.207031 22.726562 31.367188 C 22.097656 31.367188 21.46875 31.367188 20.820312 31.367188 C 20.820312 30.441406 20.820312 29.515625 20.820312 28.558594 Z M 20.820312 28.558594 "/>
<path style=" stroke:none;fill-rule:nonzero;fill:rgb(5.490196%,57.254905%,89.411765%);fill-opacity:1;" d="M 9.4375 23.113281 C 10.03125 23.113281 10.628906 23.113281 11.238281 23.113281 C 11.238281 23.269531 11.238281 23.425781 11.238281 23.585938 C 10.835938 23.585938 10.429688 23.585938 10.011719 23.585938 C 10.011719 23.828125 10.011719 24.070312 10.011719 24.324219 C 10.382812 24.324219 10.753906 24.324219 11.136719 24.324219 C 11.136719 24.476562 11.136719 24.632812 11.136719 24.792969 C 10.765625 24.792969 10.394531 24.792969 10.011719 24.792969 C 10.011719 25.164062 10.011719 25.535156 10.011719 25.917969 C 9.824219 25.917969 9.632812 25.917969 9.4375 25.917969 C 9.4375 24.992188 9.4375 24.066406 9.4375 23.113281 Z M 9.4375 23.113281 "/>
<path style=" stroke:none;fill-rule:nonzero;fill:rgb(5.490196%,57.254905%,89.411765%);fill-opacity:1;" d="M 12.53125 28.558594 C 13.253906 28.558594 13.976562 28.558594 14.71875 28.558594 C 14.71875 28.714844 14.71875 28.871094 14.71875 29.03125 C 14.449219 29.03125 14.179688 29.03125 13.902344 29.03125 C 13.902344 29.800781 13.902344 30.570312 13.902344 31.367188 C 13.71875 31.367188 13.535156 31.367188 13.347656 31.367188 C 13.347656 30.59375 13.347656 29.824219 13.347656 29.03125 C 13.078125 29.03125 12.808594 29.03125 12.53125 29.03125 C 12.53125 28.875 12.53125 28.71875 12.53125 28.558594 Z M 12.53125 28.558594 "/>
<path style=" stroke:none;fill-rule:nonzero;fill:rgb(5.490196%,57.254905%,89.411765%);fill-opacity:1;" d="M 5.671875 23.113281 C 5.859375 23.113281 6.050781 23.113281 6.246094 23.113281 C 6.246094 23.882812 6.246094 24.65625 6.246094 25.449219 C 6.65625 25.449219 7.070312 25.449219 7.492188 25.449219 C 7.492188 25.605469 7.492188 25.757812 7.492188 25.917969 C 6.890625 25.917969 6.289062 25.917969 5.671875 25.917969 C 5.671875 24.992188 5.671875 24.066406 5.671875 23.113281 Z M 5.671875 23.113281 "/>
<path style=" stroke:none;fill-rule:nonzero;fill:rgb(5.490196%,57.254905%,89.411765%);fill-opacity:1;" d="M 11.710938 23.113281 C 11.898438 23.113281 12.089844 23.113281 12.285156 23.113281 C 12.285156 24.039062 12.285156 24.964844 12.285156 25.917969 C 12.09375 25.917969 11.90625 25.917969 11.710938 25.917969 C 11.710938 24.992188 11.710938 24.066406 11.710938 23.113281 Z M 11.710938 23.113281 "/>
<path style=" stroke:none;fill-rule:nonzero;fill:rgb(5.490196%,57.254905%,89.411765%);fill-opacity:1;" d="M 7.738281 24.324219 C 8.128906 24.324219 8.523438 24.324219 8.925781 24.324219 C 8.925781 24.476562 8.925781 24.632812 8.925781 24.792969 C 8.535156 24.792969 8.144531 24.792969 7.738281 24.792969 C 7.738281 24.636719 7.738281 24.484375 7.738281 24.324219 Z M 7.738281 24.324219 "/>
</g>
</svg>
